<?xml version="1.0" encoding="UTF-8" standalone="no"?>
<!-- Generator: Adobe Illustrator 16.0.0, SVG Export Plug-In . SVG Version: 6.00 Build 0)  -->

<svg
   version="1.1"
   id="Capa_1"
   x="0px"
   y="0px"
   width="377.343px"
   height="377.343px"
   viewBox="0 0 377.343 377.343"
   style="enable-background:new 0 0 377.343 377.343;"
   xml:space="preserve"
   sodipodi:docname="logo.svg"
   inkscape:version="1.2.1 (9c6d41e410, 2022-07-14)"
   xmlns:inkscape="http://www.inkscape.org/namespaces/inkscape"
   xmlns:sodipodi="http://sodipodi.sourceforge.net/DTD/sodipodi-0.dtd"
   xmlns="http://www.w3.org/2000/svg"
   xmlns:svg="http://www.w3.org/2000/svg"><defs
   id="defs78" /><sodipodi:namedview
   id="namedview76"
   pagecolor="#ffffff"
   bordercolor="#000000"
   borderopacity="0.25"
   inkscape:showpageshadow="2"
   inkscape:pageopacity="0.0"
   inkscape:pagecheckerboard="0"
   inkscape:deskcolor="#d1d1d1"
   showgrid="true"
   showguides="true"
   inkscape:zoom="1.5684626"
   inkscape:cx="114.44327"
   inkscape:cy="195.0955"
   inkscape:window-width="1920"
   inkscape:window-height="1017"
   inkscape:window-x="1912"
   inkscape:window-y="-8"
   inkscape:window-maximized="1"
   inkscape:current-layer="Capa_1"><inkscape:grid
     type="xygrid"
     id="grid1059" /></sodipodi:namedview>


<rect
   style="fill:#ffffff;fill-opacity:1"
   id="rect449"
   width="320.05862"
   height="313.04538"
   x="27.41538"
   y="33.153484" /><g
   id="g43"
   transform="matrix(1.0170173,0,0,1,-0.00886656,0)"
   style="enable-background:new 0 0 377.343 377.343">
	<path
   d="M 298.98403,53.505 H 72.946032 c -10.876,0 -19.725,8.843 -19.725,19.713 v 230.904 c 0,10.878 8.843,19.727 19.725,19.727 H 298.98503 c 10.873,0 19.722,-8.843 19.722,-19.727 V 73.218 c -0.006,-10.87 -8.85,-19.713 -19.723,-19.713 z M 335.97203,0 H 35.957032 C 16.389032,0 0.52103235,15.869 0.52103235,35.434 v 306.462 c 0,19.581 15.86899965,35.447 35.43699965,35.447 H 335.97803 c 19.568,0 35.436,-15.866 35.436,-35.447 V 35.434 C 371.41203,15.869 355.54503,0 335.97203,0 Z m -3.296,304.122 c 0,18.572 -15.113,33.691 -33.691,33.691 H 72.946032 c -18.576,0 -33.695,-15.114 -33.695,-33.691 V 73.218 c 0,-18.569 15.114,-33.688 33.695,-33.688 H 298.98503 c 18.572,0 33.691,15.114 33.691,33.688 z"
   id="path41"
   sodipodi:nodetypes="ssssssscsssssssscssssssssss" /><path
   d="m 114.19244,187.23272 c -17.550311,20.55558 -16.687181,52.44965 1.87011,72.12741 10.35757,11.04589 24.23958,16.53226 38.04967,16.53226 13.52238,0 26.97282,-5.26692 37.25846,-15.72758 4.67529,-4.75485 8.34359,-10.24122 10.86106,-16.02019 v 0 l 67.97152,-134.01363 c 1.79818,-3.80387 -2.0859,-7.75405 -5.82613,-5.92526 l -131.77124,69.1282 v 0 c -6.83312,3.07236 -13.09081,7.75406 -18.41345,13.89879 z m 24.0238,18.8731 c 4.38757,-4.46225 10.14178,-6.72995 15.89598,-6.72995 5.7542,0 11.5084,2.2677 15.96791,6.72995 8.77516,8.92449 8.77516,23.48164 0,32.40613 -4.38758,4.46225 -10.14178,6.72994 -15.96791,6.72994 -5.7542,0 -11.50841,-2.2677 -15.89598,-6.72994 -8.84709,-8.99764 -8.84709,-23.48164 0,-32.40613 z"
   id="path216"
   sodipodi:nodetypes="ccsssccccsccscsssc"
   style="fill:#ffffff;fill-opacity:1;stroke-width:0.72537" />
</g></svg>
