<svg xmlns:xlink="http://www.w3.org/1999/xlink" xmlns="http://www.w3.org/2000/svg" viewBox="0 0 157.5 184.0448031100205" preserveAspectRatio="xMidYMid meet" class="css-1uxicuq" id="bgcafffd" width="157.5"  height="184.0448031100205" ><defs id="SvgjsDefs3759"></defs><g id="SvgjsG3760" featurekey="symbolFeature-0" transform="matrix(1.5813252043007722,0,0,1.5813252043007722,-0.3162636081943829,-40.64005895698523)" fill="#35D0BA"><path xmlns="http://www.w3.org/2000/svg" d="M1.5,36h7.7c0.7,0,1.3-0.6,1.3-1.3l0,0V27c0-0.7-0.6-1.3-1.3-1.3l0,0H1.5c-0.7,0-1.3,0.6-1.3,1.3l0,0v7.7  C0.2,35.5,0.8,36,1.5,36L1.5,36z" fill="#35D0BA"></path><path xmlns="http://www.w3.org/2000/svg" d="M84.5,74.3h14c0.7,0,1.3-0.6,1.3-1.3l0,0v-7.7c0-0.7-0.6-1.3-1.3-1.3l0,0h-14c-0.7,0-1.3,0.6-1.3,1.3l0,0V73  C83.1,73.8,83.8,74.3,84.5,74.3L84.5,74.3z" fill="#35D0BA"></path><path xmlns="http://www.w3.org/2000/svg" d="M79.3,74.3H20.5c-0.7,0-1.3-0.6-1.3-1.3l0,0v-7.7c0-0.7,0.6-1.3,1.3-1.3l0,0h58.8c0.7,0,1.3,0.6,1.3,1.3l0,0V73  C80.6,73.8,80,74.3,79.3,74.3L79.3,74.3z" fill="#35D0BA"></path><path xmlns="http://www.w3.org/2000/svg" d="M1.5,74.3h14c0.7,0,1.3-0.6,1.3-1.3l0,0v-7.7c0-0.7-0.6-1.3-1.3-1.3l0,0h-14c-0.7,0-1.3,0.6-1.3,1.3l0,0V73  C0.2,73.8,0.8,74.3,1.5,74.3L1.5,74.3z" fill="#35D0BA"></path><path xmlns="http://www.w3.org/2000/svg" d="M1.5,48.8h12.8c0.7,0,1.3-0.6,1.3-1.3l0,0v-7.7c0-0.7-0.6-1.3-1.3-1.3l0,0H1.5c-0.7,0-1.3,0.6-1.3,1.3l0,0v7.7  C0.2,48.2,0.8,48.8,1.5,48.8L1.5,48.8z" fill="#35D0BA"></path><path xmlns="http://www.w3.org/2000/svg" d="M83.1,48.8h15.3c0.7,0,1.3-0.6,1.3-1.3l0,0v-7.7c0-0.7-0.6-1.3-1.3-1.3l0,0H83.1c-0.7,0-1.3,0.6-1.3,1.3l0,0v7.7  C82,48.2,82.5,48.8,83.1,48.8L83.1,48.8z" fill="#35D0BA"></path><path xmlns="http://www.w3.org/2000/svg" d="M14.2,36h7.7c0.7,0,1.3-0.6,1.3-1.3l0,0V27c0-0.7-0.6-1.3-1.3-1.3l0,0h-7.7c-0.7,0-1.3,0.6-1.3,1.3l0,0v7.7  C13,35.5,13.5,36,14.2,36L14.2,36z" fill="#35D0BA"></path><path xmlns="http://www.w3.org/2000/svg" d="M27,36h7.7c0.7,0,1.3-0.6,1.3-1.3l0,0V27c0-0.7-0.6-1.3-1.3-1.3l0,0H27c-0.7,0-1.3,0.6-1.3,1.3l0,0v7.7  C25.7,35.5,26.3,36,27,36L27,36z" fill="#35D0BA"></path><path xmlns="http://www.w3.org/2000/svg" d="M39.8,36h7.7c0.7,0,1.3-0.6,1.3-1.3l0,0V27c0-0.7-0.6-1.3-1.3-1.3l0,0h-7.7c-0.7,0-1.3,0.6-1.3,1.3l0,0v7.7  C38.5,35.5,39,36,39.8,36L39.8,36z" fill="#35D0BA"></path><path xmlns="http://www.w3.org/2000/svg" d="M52.5,36h7.7c0.7,0,1.3-0.6,1.3-1.3l0,0V27c0-0.7-0.6-1.3-1.3-1.3l0,0h-7.7c-0.7,0-1.3,0.6-1.3,1.3l0,0v7.7  C51.3,35.5,51.8,36,52.5,36L52.5,36z" fill="#35D0BA"></path><path xmlns="http://www.w3.org/2000/svg" d="M65.3,36H73c0.7,0,1.3-0.6,1.3-1.3l0,0V27c0-0.7-0.6-1.3-1.3-1.3l0,0h-7.7c-0.7,0-1.3,0.6-1.3,1.3l0,0v7.7  C64,35.5,64.5,36,65.3,36L65.3,36z" fill="#35D0BA"></path><path xmlns="http://www.w3.org/2000/svg" d="M78,36h7.7c0.7,0,1.3-0.6,1.3-1.3l0,0V27c0-0.7-0.6-1.3-1.3-1.3l0,0H78c-0.7,0-1.3,0.6-1.3,1.3l0,0v7.7  C76.8,35.5,77.3,36,78,36L78,36z" fill="#35D0BA"></path><path xmlns="http://www.w3.org/2000/svg" d="M90.8,36h7.7c0.7,0,1.3-0.6,1.3-1.3l0,0V27c0-0.7-0.6-1.3-1.3-1.3l0,0h-7.7c-0.7,0-1.3,0.6-1.3,1.3l0,0v7.7  C89.5,35.5,90.1,36,90.8,36L90.8,36z" fill="#35D0BA"></path><path xmlns="http://www.w3.org/2000/svg" d="M19.3,48.8H27c0.7,0,1.3-0.6,1.3-1.3l0,0v-7.7c0-0.7-0.6-1.3-1.3-1.3l0,0h-7.7c-0.7,0-1.3,0.6-1.3,1.3l0,0v7.7  C18,48.2,18.5,48.8,19.3,48.8L19.3,48.8z" fill="#35D0BA"></path><path xmlns="http://www.w3.org/2000/svg" d="M32,48.8h7.7c0.7,0,1.3-0.6,1.3-1.3l0,0v-7.7c0-0.7-0.6-1.3-1.3-1.3l0,0H32c-0.7,0-1.3,0.6-1.3,1.3l0,0v7.7  C30.8,48.2,31.3,48.8,32,48.8L32,48.8z" fill="#35D0BA"></path><path xmlns="http://www.w3.org/2000/svg" d="M44.8,48.8h7.7c0.7,0,1.3-0.6,1.3-1.3l0,0v-7.7c0-0.7-0.6-1.3-1.3-1.3l0,0h-7.7c-0.7,0-1.3,0.6-1.3,1.3l0,0v7.7  C43.5,48.2,44.2,48.8,44.8,48.8L44.8,48.8z" fill="#35D0BA"></path><path xmlns="http://www.w3.org/2000/svg" d="M57.6,48.8h7.7c0.7,0,1.3-0.6,1.3-1.3l0,0v-7.7c0-0.7-0.6-1.3-1.3-1.3l0,0h-7.7c-0.7,0-1.3,0.6-1.3,1.3l0,0v7.7  C56.3,48.2,57,48.8,57.6,48.8L57.6,48.8z" fill="#35D0BA"></path><path xmlns="http://www.w3.org/2000/svg" d="M70.3,48.8H78c0.7,0,1.3-0.6,1.3-1.3l0,0v-7.7c0-0.7-0.6-1.3-1.3-1.3l0,0h-7.7c-0.7,0-1.3,0.6-1.3,1.3l0,0v7.7  C69.1,48.2,69.6,48.8,70.3,48.8L70.3,48.8z" fill="#35D0BA"></path><path xmlns="http://www.w3.org/2000/svg" d="M1.5,61.6h7.7c0.7,0,1.3-0.6,1.3-1.3l0,0v-7.7c0-0.7-0.6-1.3-1.3-1.3l0,0H1.5c-0.7,0-1.3,0.6-1.3,1.3l0,0v7.7  C0.2,61,0.8,61.6,1.5,61.6L1.5,61.6z" fill="#35D0BA"></path><path xmlns="http://www.w3.org/2000/svg" d="M14.2,61.6h7.7c0.7,0,1.3-0.6,1.3-1.3l0,0v-7.7c0-0.7-0.6-1.3-1.3-1.3l0,0h-7.7c-0.7,0-1.3,0.6-1.3,1.3l0,0v7.7  C13,61,13.5,61.6,14.2,61.6L14.2,61.6z" fill="#35D0BA"></path><path xmlns="http://www.w3.org/2000/svg" d="M27,61.6h7.7c0.7,0,1.3-0.6,1.3-1.3l0,0v-7.7c0-0.7-0.6-1.3-1.3-1.3l0,0H27c-0.7,0-1.3,0.6-1.3,1.3l0,0v7.7  C25.7,61,26.3,61.6,27,61.6L27,61.6z" fill="#35D0BA"></path><path xmlns="http://www.w3.org/2000/svg" d="M39.8,61.6h7.7c0.7,0,1.3-0.6,1.3-1.3l0,0v-7.7c0-0.7-0.6-1.3-1.3-1.3l0,0h-7.7c-0.7,0-1.3,0.6-1.3,1.3l0,0v7.7  C38.5,61,39,61.6,39.8,61.6L39.8,61.6z" fill="#35D0BA"></path><path xmlns="http://www.w3.org/2000/svg" d="M52.5,61.6h7.7c0.7,0,1.3-0.6,1.3-1.3l0,0v-7.7c0-0.7-0.6-1.3-1.3-1.3l0,0h-7.7c-0.7,0-1.3,0.6-1.3,1.3l0,0v7.7  C51.3,61,51.8,61.6,52.5,61.6L52.5,61.6z" fill="#35D0BA"></path><path xmlns="http://www.w3.org/2000/svg" d="M65.3,61.6H73c0.7,0,1.3-0.6,1.3-1.3l0,0v-7.7c0-0.7-0.6-1.3-1.3-1.3l0,0h-7.7c-0.7,0-1.3,0.6-1.3,1.3l0,0v7.7  C64,61,64.5,61.6,65.3,61.6L65.3,61.6z" fill="#35D0BA"></path><path xmlns="http://www.w3.org/2000/svg" d="M78,61.6h7.7c0.7,0,1.3-0.6,1.3-1.3l0,0v-7.7c0-0.7-0.6-1.3-1.3-1.3l0,0H78c-0.7,0-1.3,0.6-1.3,1.3l0,0v7.7  C76.8,61,77.3,61.6,78,61.6L78,61.6z" fill="#35D0BA"></path><path xmlns="http://www.w3.org/2000/svg" d="M90.8,61.6h7.7c0.7,0,1.3-0.6,1.3-1.3l0,0v-7.7c0-0.7-0.6-1.3-1.3-1.3l0,0h-7.7c-0.7,0-1.3,0.6-1.3,1.3l0,0v7.7  C89.5,61,90.1,61.6,90.8,61.6L90.8,61.6z" fill="#35D0BA"></path></g><g id="SvgjsG3761" featurekey="nameFeature-0" transform="matrix(1.5910055360855475,0,0,1.5910055360855475,3.2999578524095714,86.30844009670913)" fill="#111111"><path d="M4.12 40 l0 -29.84 l-3.68 0 l0 -3.08 l10.36 0 l0 3.08 l-3.68 0 l0 29.84 l-3 0 z M16.240000000000002 40 l0 -14.76 l-4.64 -18.16 l3.2 0 q0.4 1.64 0.86 3.62 t0.92 3.9 t0.82 3.54 t0.52 2.5 q0.16 -0.88 0.52 -2.5 t0.82 -3.54 t0.96 -3.9 t0.94 -3.62 l2.96 0 l-4.8 18.16 l0 14.76 l-3.08 0 z M33.760000000000005 13.04 q0 -1.48 -0.6 -2.18 t-2.04 -0.7 l-2.08 0 l0 11.24 l2.12 0 q1.32 0 1.96 -0.68 t0.64 -2.2 l0 -5.48 z M26.000000000000004 40 l0 -32.92 l5.12 0 q2.88 0 4.26 1.42 t1.38 4.54 l0 5.4 q0 3.12 -1.36 4.52 t-4.24 1.4 l-2.12 0 l0 15.64 l-3.04 0 z M38.88 40 l0 -32.92 l8.72 0 l0 3.08 l-5.68 0 l0 11.56 l4 0 l0 3.04 l-4 0 l0 12.24 l5.88 0 l0 3 l-8.92 0 z M50.080000000000005 40 l0 -32.92 l8.92 0 l0 3.08 l-5.88 0 l0 11.72 l4.04 0 l0 3.04 l-4.04 0 l0 15.08 l-3.04 0 z M67.92 40 l-0.72 -5.52 l-4.92 0 l-0.72 5.52 l-2.96 0 l4.52 -32.92 l3.56 0 l4.28 32.92 l-3.04 0 z M66.84 31.68 q-0.52 -4.24 -1.04 -8.38 t-1 -8.5 q-0.52 4.36 -1.06 8.5 t-1.1 8.38 l4.2 0 z M79.80000000000001 30.240000000000002 q0 -0.76 -0.04 -1.24 t-0.16 -0.84 t-0.32 -0.66 t-0.48 -0.66 q-0.6 -0.72 -1.2 -1.34 t-1.24 -1.24 t-1.3 -1.32 t-1.38 -1.58 q-0.8 -0.92 -0.94 -1.9 t-0.14 -2.38 l0 -4.92 q0 -5.44 5.12 -5.44 q2.76 0 3.88 1.34 t1.12 4.1 l0 6 l-2.84 0 l0 -5.6 q0 -1.24 -0.42 -2 t-1.66 -0.76 q-2.12 0 -2.12 2.36 l0 4.88 q0 1.04 0.14 1.52 t0.58 1.04 q1.2 1.52 2.46 2.68 t2.54 2.68 q0.44 0.52 0.72 1.04 t0.44 1.12 t0.22 1.36 t0.06 1.72 l0 4.72 q0 2.64 -1.18 4.04 t-3.94 1.4 q-2.68 0 -3.9 -1.4 t-1.22 -4.04 l0 -7 l2.92 0 l0 6.56 q0 1.28 0.46 2.08 t1.66 0.8 q1.16 0 1.66 -0.62 t0.5 -1.82 l0 -4.68 z M88.04000000000002 40 l0 -29.84 l-3.68 0 l0 -3.08 l10.36 0 l0 3.08 l-3.68 0 l0 29.84 l-3 0 z" fill="#111111"></path></g><g id="SvgjsG3762" featurekey="sloganFeature-0" transform="matrix(0.8581020411373572,0,0,0.8581020411373572,6.141999792275523,166.79748572911473)" fill="#35D0BA"><path d="M3.54 17.82 c0.02 0.62 0.02 1.24 0.04 1.86 c0 0.28 0.02 0.32 0.3 0.32 l1.8 0 c0.38 0 0.3 -0.64 0.28 -0.98 l0.06 -11.2 c0 -0.3 0.1 -0.4 0.5 -0.4 l1.76 0 c0.42 0 0.32 -0.72 0.32 -1.22 c0 -0.44 0.16 -1.2 -0.32 -1.2 c-0.34 0 -3.6 0 -4.94 0.02 c-0.66 0 -1.2 -0.02 -1.86 -0.02 c-0.5 0 -0.48 0.4 -0.48 1.28 c0 0.56 -0.02 1.12 0.46 1.12 c0.28 0 1.42 0 1.74 0.02 c0.2 0 0.34 0.06 0.38 0.28 c0 0.06 0.02 0.12 0.02 0.18 c0 1.44 -0.1 8.14 -0.06 9.94 z M15.326 18.5 c0 -0.52 0 -3.8 0.02 -4.06 c0.02 -0.06 0.06 -0.18 0.14 -0.18 s0.12 0.04 0.14 0.1 c0.8 1.56 1.5 3.12 2.22 4.64 c0.1 0.22 0.32 0.86 0.38 0.92 c0.08 0.12 0.22 0.08 0.34 0.08 l2.2 0.02 c0.26 0 0.32 -0.16 0.26 -0.38 c-0.16 -0.6 -1.3 -2.72 -1.56 -3.24 c-0.18 -0.4 -1.38 -2.72 -1.42 -2.9 c-0.04 -0.08 0.26 -0.22 0.3 -0.28 c0.96 -0.86 1.82 -1.74 2 -3.08 c0.2 -1.32 -0.1 -2.76 -0.96 -3.82 c-0.66 -0.78 -1.52 -1.24 -2.54 -1.3 c-0.62 -0.04 -1.22 0.02 -1.84 0 c-0.54 -0.02 -0.92 -0.02 -1.6 -0.02 c-0.32 0 -0.52 0.18 -0.54 0.52 l0 0.24 c-0.04 1.54 0 3.08 0.02 4.6 c0 2.32 -0.04 8.44 -0.04 9.32 c0 0.26 0.04 0.32 0.28 0.32 c0.14 0 0.3 0.02 0.44 0.02 c0.56 0 0.9 -0.02 1.48 -0.02 c0.44 0 0.28 -0.72 0.28 -1.5 z M15.326 10.7 l0.02 -2.02 c0.02 -0.3 -0.08 -0.9 0.2 -1.12 c0.38 -0.28 1.16 0 1.5 0.24 c1 0.68 0.92 2.36 0.38 3.3 c-0.26 0.44 -0.7 0.7 -1.2 0.84 c-0.3 0.08 -0.86 0.18 -0.88 -0.3 c0 -0.32 -0.02 -0.94 -0.02 -0.94 z M28.892000000000003 13.879999999999999 l0.02 5.84 c0 0.22 0.2 0.3 0.36 0.3 l1.84 0 c0.34 0 0.34 -0.3 0.34 -0.44 c0 -1.88 0 -3.9 0.08 -5.8 c0 -0.32 0.04 -0.62 0.2 -0.92 c0.18 -0.3 2.84 -6.24 3.14 -7.22 c0.04 -0.14 0.12 -0.38 -0.02 -0.5 c-0.24 -0.22 -1.2 -0.12 -1.78 -0.12 c-0.36 0 -0.58 0.14 -0.74 0.5 c-0.68 1.58 -1.38 3.14 -2.08 4.72 c-0.06 0.14 -0.14 0.14 -0.24 0 c-0.22 -0.36 -1.64 -3.88 -1.86 -4.66 c-0.04 -0.1 -0.06 -0.2 -0.12 -0.28 c-0.28 -0.32 -0.74 -0.28 -1.12 -0.28 c-0.5 0 -0.86 0.02 -1.34 0.02 c-0.32 0 -0.34 0.3 -0.28 0.56 c0.02 0.1 0.08 0.2 0.12 0.28 c0.76 1.44 2.9 6.2 3.28 7.1 c0.2 0.42 0.18 0.44 0.2 0.9 z M50.004 13.879999999999999 l0.02 5.84 c0 0.22 0.2 0.3 0.36 0.3 l1.84 0 c0.34 0 0.34 -0.3 0.34 -0.44 c0 -1.88 0 -3.9 0.08 -5.8 c0 -0.32 0.04 -0.62 0.2 -0.92 c0.18 -0.3 2.84 -6.24 3.14 -7.22 c0.04 -0.14 0.12 -0.38 -0.02 -0.5 c-0.24 -0.22 -1.2 -0.12 -1.78 -0.12 c-0.36 0 -0.58 0.14 -0.74 0.5 c-0.68 1.58 -1.38 3.14 -2.08 4.72 c-0.06 0.14 -0.14 0.14 -0.24 0 c-0.22 -0.36 -1.64 -3.88 -1.86 -4.66 c-0.04 -0.1 -0.06 -0.2 -0.12 -0.28 c-0.28 -0.32 -0.74 -0.28 -1.12 -0.28 c-0.5 0 -0.86 0.02 -1.34 0.02 c-0.32 0 -0.34 0.3 -0.28 0.56 c0.02 0.1 0.08 0.2 0.12 0.28 c0.76 1.44 2.9 6.2 3.28 7.1 c0.2 0.42 0.18 0.44 0.2 0.9 z M70.81 8.68 c0.42 1.24 0.52 2.58 0.52 3.9 c0 1.1 -0.2 2.16 -0.48 3.22 c-0.36 1.26 -0.96 2.4 -2.04 3.14 c-0.8 0.58 -1.64 0.96 -2.62 1.06 c-0.14 0 -0.26 0.02 -0.4 0.02 c-0.12 0 -0.24 -0.02 -0.38 -0.02 c-0.98 -0.1 -1.82 -0.48 -2.64 -1.06 c-1.06 -0.74 -1.68 -1.88 -2.02 -3.14 c-0.3 -1.06 -0.48 -2.12 -0.48 -3.22 c0 -1.32 0.1 -2.66 0.52 -3.9 c0.74 -2.14 2.78 -3.66 5 -3.7 c2.22 0.04 4.26 1.56 5.02 3.7 z M68.86999999999999 14.04 c0.2 -1.22 0.12 -2.46 -0.12 -3.68 c-0.24 -1.1 -0.72 -2.18 -1.64 -2.84 c-0.16 -0.12 -0.34 -0.22 -0.52 -0.28 c-0.26 -0.12 -0.54 -0.16 -0.8 -0.16 s-0.52 0.04 -0.78 0.16 c-0.2 0.06 -0.36 0.16 -0.52 0.28 c-0.94 0.66 -1.42 1.74 -1.64 2.84 c-0.24 1.22 -0.32 2.46 -0.12 3.68 c0.2 1.1 0.6 2.58 1.64 3.14 c0.44 0.24 0.92 0.4 1.42 0.42 c0.5 -0.02 1 -0.18 1.44 -0.42 c1.04 -0.56 1.44 -2.04 1.64 -3.14 z M75.556 8.28 c0 2.02 0.02 4.06 0.06 6.06 c0.02 1.22 0 2.6 0.58 3.72 c0.74 1.44 2.38 2.08 3.96 1.98 c1.08 -0.08 2.08 -0.36 2.86 -1.16 c1.32 -1.42 1.06 -3.64 1.08 -5.46 c0.04 -2.62 0.1 -5.06 0.1 -7.7 c0 -0.44 -0.14 -0.68 -0.58 -0.7 c-0.54 -0.02 -1.08 0 -1.62 0.04 c-0.22 0 -0.4 0.2 -0.4 0.44 c0.02 1.92 0.06 3.86 0.04 5.8 c-0.02 1.66 0.2 3.5 -0.42 5.08 c-0.24 0.58 -0.78 1.02 -1.42 1.02 c-1.6 -0.04 -1.54 -1.94 -1.6 -3.06 c-0.12 -2.44 0.06 -4.94 0.12 -7.38 c0 -0.46 0 -0.92 0.02 -1.38 c0.02 -0.24 0.06 -0.54 -0.26 -0.56 l-0.36 0 c-0.5 0.04 -1 -0.02 -1.5 0 c-0.48 0.04 -0.64 0.18 -0.64 0.66 c0 0.86 -0.02 1.74 -0.02 2.6 z M90.902 18.5 c0 -0.52 0 -3.8 0.02 -4.06 c0.02 -0.06 0.06 -0.18 0.14 -0.18 s0.12 0.04 0.14 0.1 c0.8 1.56 1.5 3.12 2.22 4.64 c0.1 0.22 0.32 0.86 0.38 0.92 c0.08 0.12 0.22 0.08 0.34 0.08 l2.2 0.02 c0.26 0 0.32 -0.16 0.26 -0.38 c-0.16 -0.6 -1.3 -2.72 -1.56 -3.24 c-0.18 -0.4 -1.38 -2.72 -1.42 -2.9 c-0.04 -0.08 0.26 -0.22 0.3 -0.28 c0.96 -0.86 1.82 -1.74 2 -3.08 c0.2 -1.32 -0.1 -2.76 -0.96 -3.82 c-0.66 -0.78 -1.52 -1.24 -2.54 -1.3 c-0.62 -0.04 -1.22 0.02 -1.84 0 c-0.54 -0.02 -0.92 -0.02 -1.6 -0.02 c-0.32 0 -0.52 0.18 -0.54 0.52 l0 0.24 c-0.04 1.54 0 3.08 0.02 4.6 c0 2.32 -0.04 8.44 -0.04 9.32 c0 0.26 0.04 0.32 0.28 0.32 c0.14 0 0.3 0.02 0.44 0.02 c0.56 0 0.9 -0.02 1.48 -0.02 c0.44 0 0.28 -0.72 0.28 -1.5 z M90.902 10.7 l0.02 -2.02 c0.02 -0.3 -0.08 -0.9 0.2 -1.12 c0.38 -0.28 1.16 0 1.5 0.24 c1 0.68 0.92 2.36 0.38 3.3 c-0.26 0.44 -0.7 0.7 -1.2 0.84 c-0.3 0.08 -0.86 0.18 -0.88 -0.3 c0 -0.32 -0.02 -0.94 -0.02 -0.94 z M112.154 4.9 c-0.38 0.02 -0.76 0.08 -1.14 0.2 c-0.82 0.28 -1.56 0.84 -2.06 1.56 c-0.44 0.66 -0.62 1.44 -0.68 2.22 c-0.04 0.6 0.02 1.22 0.3 1.76 c0.3 0.58 0.82 1.08 1.26 1.56 c0.4 0.42 0.8 0.84 1.24 1.22 c0.4 0.38 0.86 0.68 1.26 1.08 c0.58 0.58 0.8 1.9 0.38 2.62 c-0.5 0.8 -1.68 0.92 -2.46 0.66 c-0.4 -0.14 -0.76 -0.44 -1.1 -0.68 c-0.2 -0.14 -0.44 -0.2 -0.58 0.04 c-0.08 0.12 -0.12 0.26 -0.16 0.38 c-0.14 0.5 -0.32 0.96 -0.34 1.5 c-0.02 0.62 1.16 0.8 1.6 0.9 c1.96 0.46 4.32 0.1 5.34 -1.84 c0.2 -0.4 0.34 -0.82 0.42 -1.26 c0.02 -0.16 0.04 -0.3 0.04 -0.46 c0.08 -1.28 -0.44 -2.36 -1.22 -3.32 c-0.84 -1.04 -1.9 -1.76 -2.88 -2.66 c-0.6 -0.56 -0.82 -1.44 -0.64 -2.24 c0.18 -0.86 1.16 -1.08 1.9 -0.86 c0.22 0.06 0.4 0.16 0.6 0.28 c0.12 0.06 0.24 0.14 0.4 0.14 c0.28 0.02 0.32 -0.2 0.38 -0.42 c0.14 -0.5 0.38 -0.9 0.48 -1.38 c0.1 -0.54 -0.34 -0.64 -0.78 -0.78 c-0.52 -0.14 -1.02 -0.24 -1.56 -0.22 z M122.42 16.38 c0 -0.7 -0.1 -2.6 -0.08 -3 c0 -0.06 0.04 -0.14 0.06 -0.14 c0.04 0 0.12 0.04 0.14 0.06 c0.64 0.84 3.64 6.66 4 6.68 c0.1 0.02 0.2 0.02 0.3 0.02 c0.68 -0.04 1.28 0 1.96 0 c0.7 0 0.24 -0.68 0.12 -0.86 c-0.18 -0.26 -2.56 -4.52 -2.7 -4.78 c-0.4 -0.68 -0.74 -1.42 -1.14 -2.08 c-0.04 -0.08 -0.08 -0.2 -0.06 -0.28 c0.04 -0.24 0.1 -0.46 0.2 -0.68 c0.48 -0.94 0.98 -1.9 1.56 -2.8 c0.64 -1.02 1 -1.66 1.52 -2.58 c0.12 -0.22 0.2 -0.46 0.28 -0.72 c0.02 -0.1 -0.06 -0.2 -0.18 -0.2 c-0.38 -0.02 -1.76 0 -2.2 0 c-0.2 0 -0.4 0.04 -0.5 0.22 c-0.26 0.5 -2.94 5.4 -3.2 5.84 c-0.02 0.04 -0.08 0.06 -0.14 0.06 c0 0 -0.04 -0.06 -0.04 -0.1 c-0.02 -1.12 0.18 -4.78 0.14 -5.52 c-0.02 -0.44 -0.1 -0.48 -0.54 -0.5 c-0.48 -0.02 -1.14 -0.02 -1.62 -0.02 c-0.44 0 -0.48 0.24 -0.54 0.56 c-0.02 0.06 -0.02 1.94 -0.02 2.78 c0 1.22 -0.1 8.86 0.04 11.28 c0 0.24 0.06 0.38 0.26 0.38 c0.54 -0.04 1.34 0 1.88 0 c0.38 0 0.44 -0.04 0.44 -0.68 c0 -0.86 0.08 -1.64 0.08 -2.7 c0 -0.08 -0.02 -0.16 -0.02 -0.24 z M136.166 14.84 c-0.06 -2.28 -0.04 -4.7 -0.02 -6.96 c0 -0.7 -0.04 -1.46 -0.04 -2.16 c0 -0.76 -0.3 -0.72 -0.7 -0.74 c-0.58 -0.02 -0.84 -0.02 -1.42 -0.02 c-0.38 -0.02 -0.54 0.08 -0.54 0.46 c0 1.96 -0.06 7.5 -0.04 8.3 s0.1 4.44 0.06 5.24 c-0.02 0.28 0 0.56 0.02 0.84 c0.02 0.1 0.08 0.2 0.24 0.2 c0.66 -0.04 1.28 -0.04 1.94 -0.06 c0.24 -0.02 0.44 -0.08 0.54 -0.34 c0.02 -0.14 -0.04 -3.8 -0.04 -4.76 z M140.43200000000002 6.960000000000001 c-0.02 1.24 0.1 10.3 0.08 10.96 c0 0.62 0 1.24 0.02 1.86 c0 0.1 0.06 0.2 0.16 0.2 c1.4 0.06 2.78 -0.06 4.18 -0.04 c0.46 0.02 0.92 0 1.36 0 c0.44 -0.02 0.48 -0.2 0.46 -0.56 c-0.02 -0.56 -0.02 -1.06 -0.02 -1.6 c-0.02 -0.28 -0.18 -0.38 -0.42 -0.38 c-0.82 0.02 -1.64 -0.02 -2.46 0.02 c-0.14 0.02 -0.28 0.02 -0.42 0.02 c-0.24 -0.02 -0.3 -0.08 -0.32 -0.34 l0 -0.3 c-0.06 -1.66 0.06 -3.38 0.06 -5.04 c-0.02 -1.4 0 -2.66 -0.02 -3.9 c0 -0.54 0 -1.08 -0.02 -1.6 c-0.02 -0.32 0 -0.66 -0.08 -0.98 c-0.04 -0.12 -0.1 -0.28 -0.24 -0.28 l-1.88 0 c-0.32 0 -0.42 0.22 -0.44 0.54 l0 1.42 z M150.918 6.960000000000001 c-0.02 1.24 0.1 10.3 0.08 10.96 c0 0.62 0 1.24 0.02 1.86 c0 0.1 0.06 0.2 0.16 0.2 c1.4 0.06 2.78 -0.06 4.18 -0.04 c0.46 0.02 0.92 0 1.36 0 c0.44 -0.02 0.48 -0.2 0.46 -0.56 c-0.02 -0.56 -0.02 -1.06 -0.02 -1.6 c-0.02 -0.28 -0.18 -0.38 -0.42 -0.38 c-0.82 0.02 -1.64 -0.02 -2.46 0.02 c-0.14 0.02 -0.28 0.02 -0.42 0.02 c-0.24 -0.02 -0.3 -0.08 -0.32 -0.34 l0 -0.3 c-0.06 -1.66 0.06 -3.38 0.06 -5.04 c-0.02 -1.4 0 -2.66 -0.02 -3.9 c0 -0.54 0 -1.08 -0.02 -1.6 c-0.02 -0.32 0 -0.66 -0.08 -0.98 c-0.04 -0.12 -0.1 -0.28 -0.24 -0.28 l-1.88 0 c-0.32 0 -0.42 0.22 -0.44 0.54 l0 1.42 z M165.484 4.9 c-0.38 0.02 -0.76 0.08 -1.14 0.2 c-0.82 0.28 -1.56 0.84 -2.06 1.56 c-0.44 0.66 -0.62 1.44 -0.68 2.22 c-0.04 0.6 0.02 1.22 0.3 1.76 c0.3 0.58 0.82 1.08 1.26 1.56 c0.4 0.42 0.8 0.84 1.24 1.22 c0.4 0.38 0.86 0.68 1.26 1.08 c0.58 0.58 0.8 1.9 0.38 2.62 c-0.5 0.8 -1.68 0.92 -2.46 0.66 c-0.4 -0.14 -0.76 -0.44 -1.1 -0.68 c-0.2 -0.14 -0.44 -0.2 -0.58 0.04 c-0.08 0.12 -0.12 0.26 -0.16 0.38 c-0.14 0.5 -0.32 0.96 -0.34 1.5 c-0.02 0.62 1.16 0.8 1.6 0.9 c1.96 0.46 4.32 0.1 5.34 -1.84 c0.2 -0.4 0.34 -0.82 0.42 -1.26 c0.02 -0.16 0.04 -0.3 0.04 -0.46 c0.08 -1.28 -0.44 -2.36 -1.22 -3.32 c-0.84 -1.04 -1.9 -1.76 -2.88 -2.66 c-0.6 -0.56 -0.82 -1.44 -0.64 -2.24 c0.18 -0.86 1.16 -1.08 1.9 -0.86 c0.22 0.06 0.4 0.16 0.6 0.28 c0.12 0.06 0.24 0.14 0.4 0.14 c0.28 0.02 0.32 -0.2 0.38 -0.42 c0.14 -0.5 0.38 -0.9 0.48 -1.38 c0.1 -0.54 -0.34 -0.64 -0.78 -0.78 c-0.52 -0.14 -1.02 -0.24 -1.56 -0.22 z" fill="#35D0BA"></path></g></svg>